<?xml version="1.0" encoding="UTF-8" standalone="no"?>
<!-- Created with Inkscape (http://www.inkscape.org/) -->

<svg
   width="123.39075mm"
   height="104.19881mm"
   viewBox="0 0 123.39075 104.19881"
   version="1.1"
   id="svg1"
   xml:space="preserve"
   xmlns="http://www.w3.org/2000/svg"
   xmlns:svg="http://www.w3.org/2000/svg"><defs
     id="defs1" /><g
     id="layer1"
     transform="translate(196.34045,-95.019461)"><path
       style="fill:#000000"
       d="m -174.97314,198.81311 c -1.23182,-0.53632 -1.81376,-2.07937 -5.51342,-14.61902 -0.47982,-1.6263 -1.06108,-3.42848 -1.2917,-4.00484 -0.23061,-0.57635 -0.65815,-2.00762 -0.95009,-3.1806 -0.29193,-1.17297 -0.75862,-2.58549 -1.03709,-3.13891 -0.27846,-0.55343 -0.71481,-1.95873 -0.96966,-3.1229 -0.25485,-1.16417 -0.73311,-2.65245 -1.06281,-3.30729 -0.32969,-0.65485 -0.74431,-1.905 -0.92137,-2.77813 -0.17707,-0.87312 -0.65699,-2.3614 -1.0665,-3.30729 -0.40951,-0.94588 -0.87353,-2.43417 -1.03114,-3.30729 -0.15761,-0.87313 -0.63658,-2.25949 -1.06437,-3.08081 -0.4278,-0.82132 -0.91266,-2.25007 -1.07748,-3.175 -0.16482,-0.92493 -0.63053,-2.39607 -1.0349,-3.26919 -0.40438,-0.87313 -0.88344,-2.35744 -1.06457,-3.29848 -0.18114,-0.94103 -0.6007,-2.25072 -0.93237,-2.91041 -4.85125,-9.64914 -3.44783,-10.55755 16.34081,-10.57722 18.57251,-0.0185 16.32406,1.12027 16.33151,-8.27114 0.004,-5.03634 0.10835,-7.39566 0.37796,-8.54484 0.53014,-2.25966 2.11365,-6.67054 2.58967,-7.2136 0.22145,-0.25262 0.58503,-0.8165 0.80797,-1.25306 0.56378,-1.10401 2.9209,-3.98913 3.95685,-4.84318 0.47355,-0.3904 0.98006,-0.84622 1.12558,-1.01293 5.66961,-6.495061 26.36869,-7.609958 33.28217,-1.792651 0.41656,0.350517 0.86656,0.637297 0.99999,0.637297 0.54341,0 4.55101,3.841214 5.87056,5.626844 3.51682,4.75895 4.48715,8.65149 4.59929,18.45024 0.0425,3.71078 0.0812,6.83793 0.086,6.9492 0.0516,1.18362 0.95146,1.25086 16.755059,1.2519 17.72459,0.001 19.37889,0.53137 17.12823,5.48958 -0.28036,0.61764 -0.65254,1.86779 -0.82706,2.77813 -0.17452,0.91033 -0.5872,2.19667 -0.91705,2.85852 -0.32985,0.66185 -0.84596,2.24011 -1.1469,3.50725 -0.30095,1.26714 -0.78846,2.77684 -1.08336,3.3549 -0.2949,0.57805 -0.71562,1.90401 -0.93493,2.94657 -0.21931,1.04257 -0.64727,2.44416 -0.95103,3.11466 -0.30376,0.6705 -0.72285,1.93346 -0.93132,2.80659 -0.20848,0.87312 -0.78853,2.83765 -1.28901,4.36562 -0.50048,1.52797 -1.51317,4.74266 -2.25042,7.14375 -2.34258,7.62932 -3.45778,11.18959 -4.14382,13.22917 -0.36711,1.0914 -0.93655,3.01386 -1.26543,4.27213 -0.32887,1.25826 -0.84841,2.80607 -1.15454,3.43958 -0.30612,0.63351 -0.73625,2.00777 -0.95585,3.05393 -0.4141,1.97275 -1.84866,4.62824 -2.6707,4.94368 -0.96281,0.36947 -79.853269,0.16346 -80.712799,-0.21076 z m 76.446539,-6.3669 c 0.21633,-0.21633 0.59668,-1.02 0.84522,-1.78593 0.24854,-0.76594 0.6712,-1.75712 0.93925,-2.20264 0.26804,-0.44552 0.73379,-1.86694 1.03499,-3.15872 0.30121,-1.29177 0.78634,-2.73489 1.07807,-3.20692 0.29173,-0.47204 0.71075,-1.72952 0.93115,-2.79441 0.22039,-1.06489 0.69942,-2.59101 1.0645,-3.39138 0.36508,-0.80036 0.83912,-2.28864 1.05342,-3.30729 0.2143,-1.01864 0.6381,-2.36628 0.94178,-2.99475 0.30369,-0.62847 0.82684,-2.17629 1.16256,-3.43959 0.33572,-1.2633 0.90793,-3.18988 1.27157,-4.28128 0.73074,-2.19319 2.40853,-7.54403 4.27252,-13.62604 0.66899,-2.18282 1.44832,-4.69152 1.73184,-5.57491 1.45451,-4.53176 1.62925,-4.46013 -11.11403,-4.55594 -14.605539,-0.10981 -13.318639,-0.91512 -13.505879,8.4517 -0.15124,7.56647 -0.37211,8.16144 -3.02965,8.16144 -3.07403,0 -3.15834,-0.2139 -3.32035,-8.42398 -0.18369,-9.3092 2.49955,-8.30205 -21.82812,-8.19308 -22.34128,0.10008 -19.77656,-1.01308 -19.99764,8.67956 -0.0846,3.71078 -0.17394,6.77839 -0.19844,6.81691 -0.58215,0.91522 -2.99006,1.35753 -4.50857,0.82817 -1.4054,-0.48992 -1.47754,-0.84831 -1.6214,-8.05446 -0.15269,-7.64928 -0.22005,-7.90254 -2.17779,-8.18813 -2.37507,-0.34648 -23.63936,-0.0275 -24.1079,0.36167 -0.54691,0.45422 -0.57279,2.34599 -0.0417,3.04753 0.20828,0.27512 0.57574,1.40622 0.81659,2.51354 0.24084,1.10732 0.71082,2.56739 1.04439,3.2446 0.33356,0.67721 0.81168,2.16549 1.06248,3.30729 0.2508,1.1418 0.6807,2.52266 0.95533,3.06857 0.27464,0.54592 0.6843,1.73654 0.91037,2.64584 0.22607,0.90929 0.81179,2.90342 1.30161,4.43138 0.48982,1.52797 1.42452,4.50454 2.07711,6.61459 0.65258,2.11005 1.72844,5.56286 2.39078,7.67291 0.66235,2.11006 1.32934,4.41417 1.48221,5.12025 0.15288,0.70608 0.45115,1.61871 0.66284,2.02806 0.21168,0.40936 0.73197,1.97478 1.1562,3.47872 1.08628,3.85103 2.18952,6.36719 2.96638,6.76543 1.04521,0.53579 71.761229,0.47837 72.298309,-0.0587 z m -16.005849,-61.26765 c 1.72932,-1.0543 0.75075,-17.66558 -1.19577,-20.29843 -0.29394,-0.39758 -0.74377,-1.13959 -0.99962,-1.64892 -5.13709,-10.226324 -25.46356,-11.849941 -33.59155,-2.6832 -4.15005,4.68042 -4.919,7.43573 -4.919,17.62581 0,6.81739 0.0107,6.87677 1.32292,7.35927 1.37772,0.50658 38.51901,0.17223 39.38302,-0.35453 z"
       id="path5" /></g></svg>
